<svg width="85" height="97" viewBox="0 0 85 97" fill="none" xmlns="http://www.w3.org/2000/svg">
<path d="M28.1015 10.7064C34.2052 10.7064 39.1535 16.3533 39.1535 23.3187C39.1535 30.2841 34.2052 35.931 28.1015 35.931C21.9977 35.931 17.0495 30.2841 17.0495 23.3187C17.0495 16.3533 21.9974 10.7064 28.1015 10.7064ZM10.2936 57.9769C10.2936 57.03 10.8269 56.3877 11.6862 56.3877C12.5455 56.3877 13.0787 56.9963 13.0787 57.9769V93.2099H43.4493V57.9769C43.4493 57.03 43.9825 56.3877 44.8418 56.3877C45.6716 56.3877 46.2344 56.9963 46.2344 57.9769V93.2099H55.8938V54.7986C55.8938 46.1088 49.6715 39.0418 42.0863 39.0418H39.3012L31.1827 53.4459L30.2049 42.6596L31.5383 39.0077H25.5531L26.8866 42.6596L25.8496 53.5134L17.7308 39.0418H14.4716C6.85678 39.0418 0.664062 46.1425 0.664062 54.7986V93.2102H10.3235V57.9773L10.2936 57.9769ZM71.0547 9.85162H78.6914V18.5665H71.0547V9.85162ZM60.7617 15.9141H67.7344V18.5665H60.7617V15.9141ZM60.7617 9.85162H67.7344V12.504H60.7617V9.85162ZM60.7617 28.418H78.6914V31.0704H60.7617V28.418ZM60.7617 22.3555H78.6914V25.0079H60.7617V22.3555ZM60.7617 34.4805H78.6914V37.1329H60.7617V34.4805ZM55.1172 3.69629V43.1954H84.3359V3.78912L55.1172 3.69629ZM81.9579 40.543H57.4414V6.44146H58.6121H60.8862H82.0117L81.9579 40.543Z" fill="#5A796C"/>
</svg>
