<svg width="46" height="45" viewBox="0 0 46 45" fill="none" xmlns="http://www.w3.org/2000/svg">
<path fill-rule="evenodd" clip-rule="evenodd" d="M37.9545 4C40.7411 4 43 6.31999 43 9.18182V36.8182C43 39.6801 40.7411 42 37.9545 42H11.0455C8.25893 42 6 39.6801 6 36.8182V9.18182C6 6.31999 8.25893 4 11.0455 4H37.9545ZM37.9545 7.45455C38.8834 7.45455 39.6364 8.22788 39.6364 9.18182V36.8182C39.6364 37.7722 38.8834 38.5455 37.9545 38.5455H29.5455V26.4544H33.0372C33.7611 26.4544 34.4037 25.9787 34.6328 25.2733L35.3778 22.9777C35.6501 22.1388 35.0421 21.2726 34.1812 21.2726H29.5455V17.818C29.5455 16.9544 30.3864 16.0908 31.2273 16.0908H34.5909C35.5198 16.0908 36.2727 15.3174 36.2727 14.3635V13.1786C36.2727 12.6207 35.9258 12.1204 35.4004 11.978C33.1958 11.3805 31.2273 11.3806 31.2273 11.3806C27.0227 11.3806 24.5 14.3635 24.5 16.9544V21.2726H21.1364C20.2075 21.2726 19.4545 22.0459 19.4545 22.9998V24.7271C19.4545 25.6811 20.2075 26.4544 21.1364 26.4544H24.5V38.5455H11.0455C10.1166 38.5455 9.36364 37.7722 9.36364 36.8182V9.18182C9.36364 8.22788 10.1166 7.45455 11.0455 7.45455H37.9545Z" fill="white"/>
</svg>
