<svg width="27" height="19" viewBox="0 0 27 19" fill="none" xmlns="http://www.w3.org/2000/svg">
<path fill-rule="evenodd" clip-rule="evenodd" d="M22.5 0.791504C24.364 0.791504 25.875 1.85483 25.875 3.1665V15.8332C25.875 17.1449 24.364 18.2082 22.5 18.2082H4.5C2.63604 18.2082 1.125 17.1449 1.125 15.8332V3.1665C1.125 1.85483 2.63604 0.791504 4.5 0.791504H22.5ZM22.5 2.37484C23.1213 2.37484 23.625 2.72928 23.625 3.1665V15.8332C23.625 16.2704 23.1213 16.6248 22.5 16.6248H16.875V11.0831H19.2107C19.6949 11.0831 20.1248 10.8651 20.278 10.5417L20.7764 9.48962C20.9585 9.10511 20.5518 8.70809 19.9759 8.70809H16.875V7.12477C16.875 6.72894 17.4375 6.33311 18 6.33311H20.25C20.8713 6.33311 21.375 5.97866 21.375 5.54144V4.99836C21.375 4.74264 21.1429 4.51337 20.7915 4.44811C19.3168 4.17426 18 4.17426 18 4.17426C15.1875 4.17426 13.5 5.54144 13.5 6.72894V8.70809H11.25C10.6287 8.70809 10.125 9.06252 10.125 9.49976V10.2914C10.125 10.7287 10.6287 11.0831 11.25 11.0831H13.5V16.6248H4.5C3.87868 16.6248 3.375 16.2704 3.375 15.8332V3.1665C3.375 2.72928 3.87868 2.37484 4.5 2.37484H22.5Z" fill="white"/>
</svg>
