<svg width="37" height="35" viewBox="0 0 37 35" fill="none" xmlns="http://www.w3.org/2000/svg">
<path d="M24.0066 17.988C23.9461 17.7285 23.885 17.4567 23.8256 17.1572C23.8256 17.1572 23.8186 16.4424 23.3343 15.8658C23.0585 16.1016 22.582 16.6439 22.0943 17.5142L18.5539 23.8266C18.3342 24.219 18.3207 24.6778 18.5195 25.0545C18.6844 25.369 18.9804 25.5925 19.3542 25.6822C20.4471 25.9463 21.5609 26.0586 22.7608 26.0044C23.6567 25.9649 24.4283 25.1429 24.3777 24.2808L24.0116 18.0287C24.0105 18.0157 24.0082 18.0029 24.0066 17.988Z" fill="#5A796C"/>
<path d="M18.4003 34.6874C28.2671 34.6874 36.2938 27.7759 36.2938 19.2818C36.2938 12.9967 31.8975 7.58266 25.6155 5.18872C25.6035 5.22 25.5993 5.25227 25.5862 5.28319C25.4101 5.9099 25.1683 6.49444 24.8837 7.03901C30.2791 9.16643 34.0428 13.8469 34.0428 19.2808C34.0428 22.3018 32.8685 25.0841 30.9101 27.333C29.6086 26.3782 28.3443 25.3194 27.3939 24.0471C26.1763 22.4155 25.4166 21.6029 24.844 20.4578L25.0669 24.2519C25.1364 25.4458 24.0743 26.543 22.7957 26.5999C22.5941 26.6078 22.3972 26.6125 22.2044 26.6125C21.171 26.6125 20.1492 26.4925 19.1655 26.2555C18.5914 26.1178 18.1377 25.7784 17.8875 25.3006C17.6064 24.7649 17.6219 24.1179 17.9302 23.5689L21.4699 17.2559C21.6155 16.9969 22.2075 15.9846 22.8412 15.4578C22.8223 15.4467 22.8081 15.4326 22.7875 15.4217C21.926 14.9684 21.1794 15.5418 18.8344 15.5198C18.6776 15.2079 18.3179 14.9885 17.898 14.9885C17.5351 14.9885 17.2185 15.1536 17.0379 15.3998C13.968 15.0349 11.2182 13.7387 10.4533 13.3532C10.457 13.3241 10.4662 13.2956 10.4662 13.2654C10.4662 12.7858 9.88644 12.3976 9.17102 12.3976C8.45502 12.3976 7.87439 12.7858 7.87439 13.2654C7.87439 13.5823 8.13255 13.8566 8.51062 14.0079C8.56896 15.2944 9.22141 19.5712 15.125 20.7977L13.9373 22.5114C13.5839 23.021 13.5053 23.611 13.722 24.1293C13.9222 24.6087 14.3474 24.9695 14.9195 25.1454C15.5291 25.3333 16.1859 25.5105 16.8708 25.6744C16.8708 25.6744 17.8671 27.8004 18.6292 29.0189V32.7401C18.5513 32.7405 18.4763 32.7504 18.3988 32.7504C9.77324 32.7504 2.75522 26.7084 2.75522 19.2819C2.75522 14.0329 6.26845 9.48802 11.3696 7.26634C10.9265 6.44977 10.6665 5.7848 10.5456 5.44312C4.60634 7.95197 0.506271 13.211 0.506271 19.2818C0.506271 27.7759 8.53346 34.6874 18.4003 34.6874ZM19.3211 30.0229C19.9328 30.8298 20.6572 31.5979 21.5216 32.2773V32.4797C20.8056 32.6051 20.0676 32.6726 19.3211 32.7105V30.0229Z" fill="#5A796C"/>
<path d="M11.7714 4.87069C11.7714 4.87069 13.3371 9.99867 17.8991 11.5055C17.8991 11.5055 22.7832 9.35365 23.9962 4.9415C23.9989 4.93317 23.9989 4.92682 24.0008 4.9182C24.1475 4.59099 24.2364 4.23792 24.2364 3.86539C24.2363 2.24821 22.7141 0.9375 20.8357 0.9375C19.5744 0.9375 18.4858 1.5355 17.8991 2.41413C17.3122 1.53614 16.2239 0.9375 14.9621 0.9375C13.0837 0.9375 11.5616 2.24821 11.5616 3.86546C11.5616 4.21918 11.6454 4.55373 11.7788 4.86727C11.7783 4.86784 11.7714 4.87069 11.7714 4.87069ZM15.4511 6.57108L17.5828 7.24902L19.5025 3.74991C19.6906 3.40695 20.1946 3.18233 20.6279 3.24801L21.3172 3.35274C21.7513 3.41871 21.9008 3.72597 21.6517 4.03851L17.7246 8.97079C17.475 9.28397 17.0709 9.28397 16.8202 8.97215L15.1564 6.89858C14.9056 6.58605 15.037 6.44007 15.4511 6.57108Z" fill="#5A796C"/>
</svg>
