<svg width="81" height="84" viewBox="0 0 81 84" fill="none" xmlns="http://www.w3.org/2000/svg">
<path d="M0.370636 81.7594L17.2197 64.2866L14.5404 61.508C14.0462 60.9955 14.0462 60.1643 14.5404 59.6516L17.116 56.9807L12.3292 52.0167C11.835 51.5041 11.835 50.673 12.3292 50.1603L47.9831 13.186C48.4774 12.6735 49.2788 12.6735 49.7729 13.186L58.1339 21.8567L65.3996 14.3222L57.0385 5.65146C56.5443 5.13893 56.5443 4.30779 57.0385 3.79509L60.3274 0.384563C60.5647 0.138305 60.8867 0 61.2224 0C61.5581 0 61.88 0.138305 62.1173 0.384563L80.6291 19.582C80.8666 19.8281 81 20.162 81 20.5101C81 20.8582 80.8666 21.1921 80.6291 21.4382L77.3403 24.8489C77.0931 25.1052 76.7691 25.2335 76.4453 25.2335C76.1213 25.2335 75.7975 25.1053 75.5503 24.8489L67.1893 16.1782L59.9238 23.7128L68.2849 32.3835C68.7791 32.896 68.7791 33.7271 68.2849 34.2395L42.8018 60.6665C42.3076 61.1791 41.5061 61.1791 41.0119 60.6665C40.5177 60.154 40.5177 59.3229 41.0119 58.8105L41.8524 57.9388L38.2881 54.2425C37.7939 53.73 37.7939 52.8988 38.2881 52.3865C38.7824 51.8739 39.5838 51.8739 40.0779 52.3865L43.6422 56.0828L48.1888 51.3678L43.0497 46.0384C42.5555 45.5259 42.5555 44.6947 43.0497 44.1824C43.544 43.6698 44.3454 43.6698 44.8395 44.1824L49.9786 49.5118L54.5252 44.7968L50.9608 41.1004C50.4666 40.5879 50.4666 39.7568 50.9608 39.2444C51.4551 38.7319 52.2565 38.7319 52.7506 39.2444L56.3149 42.9407L60.8615 38.2257L55.7223 32.8963C55.228 32.3838 55.228 31.5527 55.7223 31.0403C56.2163 30.5278 57.0178 30.5278 57.512 31.0403L62.6513 36.3697L65.5995 33.3122L54.085 21.3713L46.9904 28.7288C46.7433 28.9851 46.4193 29.1134 46.0955 29.1134C45.7716 29.1134 45.4476 28.9852 45.2005 28.7288C44.7063 28.2163 44.7063 27.3851 45.2005 26.8728L52.2951 19.5152L48.8775 15.971L15.0133 51.0894L18.431 54.6336L42.3038 29.8766C42.798 29.3641 43.5995 29.3641 44.0936 29.8766C44.5878 30.3891 44.5878 31.2203 44.0936 31.7326L20.2215 56.4888L26.9492 63.4658L31.736 68.4298L35.5159 64.5099L30.3769 59.1805C29.8826 58.6679 29.8826 57.8368 30.3769 57.3243C30.8711 56.8117 31.6726 56.8117 32.1668 57.3243L37.3057 62.6538L38.0647 61.8667C38.559 61.3541 39.3604 61.3541 39.8547 61.8667C40.3489 62.3792 40.3489 63.2103 39.8547 63.7227L38.2016 65.437C38.2013 65.4373 38.2011 65.4375 38.2008 65.4378C38.2005 65.4381 38.2003 65.4383 38.2 65.4386L32.6309 71.214C32.3838 71.4702 32.0598 71.5985 31.736 71.5985C31.4121 71.5985 31.0882 71.4704 30.841 71.214L26.0543 66.2499L23.4787 68.9209C23.2316 69.1771 22.9076 69.3054 22.5838 69.3054C22.2599 69.3054 21.9359 69.1773 21.6888 68.9209L19.0095 66.1423L2.16071 83.6154C1.91359 83.8717 1.58959 84 1.26575 84C0.94191 84 0.617912 83.8719 0.370796 83.6154C-0.123589 83.1029 -0.123589 82.2718 0.370636 81.7594ZM76.4455 22.0648L77.9446 20.5101L61.2225 3.16887L59.7235 4.72336L76.4455 22.0648ZM19.9038 63.3577C19.9041 63.358 19.9043 63.3581 19.9046 63.3585C19.9049 63.3588 19.9051 63.359 19.9054 63.3593L22.5838 66.1369L24.2644 64.394L18.9059 58.8371L17.2253 60.5799L19.9038 63.3577Z" fill="#5A796C"/>
</svg>
