<svg width="20" height="15" viewBox="0 0 20 15" fill="none" xmlns="http://www.w3.org/2000/svg">
<path d="M10 0C5.85813 0 2.5 2.51859 2.5 5.625C2.5 6.8482 3.03469 7.97063 3.92344 8.88984C3.93938 8.91188 3.94187 8.93648 3.96 8.95758L8.96 14.5826C9.19188 14.8434 9.5825 15 10 15C10.4175 15 10.8081 14.8434 11.04 14.5826L16.04 8.95758C16.0584 8.93648 16.0606 8.91188 16.0766 8.88984C16.9653 7.97063 17.5 6.8482 17.5 5.625C17.5 2.51859 14.1419 0 10 0ZM10 7.5C8.61937 7.5 7.5 6.66047 7.5 5.625C7.5 4.58953 8.61937 3.75 10 3.75C11.3806 3.75 12.5 4.58953 12.5 5.625C12.5 6.66047 11.3806 7.5 10 7.5Z" fill="white"/>
</svg>
