<svg width="25" height="18" viewBox="0 0 25 18" fill="none" xmlns="http://www.w3.org/2000/svg">
<path d="M17.246 9.67965L16.7716 10.0192C16.7716 10.0192 15.6438 10.8266 12.5657 8.6229C9.48761 6.41925 10.6153 5.61193 10.6153 5.61193L10.9141 5.39803C11.6501 4.87113 11.7195 4.02518 11.0773 3.40761L9.7638 2.14431C8.96903 1.37994 7.43328 1.27896 6.52233 1.93112L4.88733 3.10164C4.43564 3.42501 4.13296 3.84419 4.16967 4.3092C4.26357 5.49886 5.01114 8.05852 9.18265 11.0449C13.6063 14.2119 17.7571 14.3377 19.4545 14.2238C19.9913 14.1878 20.4582 13.9909 20.8345 13.7215L22.3143 12.6622C23.3131 11.9471 23.0314 10.7212 21.7534 10.221L19.7633 9.44205C18.9242 9.11362 17.9019 9.21007 17.246 9.67965Z" fill="white"/>
</svg>
