<svg width="111" height="118" viewBox="0 0 111 118" fill="none" xmlns="http://www.w3.org/2000/svg">
<g clip-path="url(#clip0_116_24)">
<path d="M59.4363 65.2681L63.3666 66.7572L73.3347 100.252L64.8125 96.2369L49.3492 61.4504L53.7343 63.109L67.2092 93.4225L67.9152 93.755L59.4363 65.2681ZM46.2515 56.4184L39.5708 53.8875C38.9801 55.6066 37.9583 57.0653 36.6138 58.1085C34.1908 59.8882 31.2424 60.7312 28.174 60.5217C25.1055 60.3121 22.0676 59.0603 19.4778 56.9383C18.2757 56.006 17.2706 54.7828 16.5525 53.3783C15.8343 51.9737 15.4254 50.4316 15.3625 48.89C15.2996 47.3483 15.5845 45.8552 16.1918 44.5443C16.7991 43.2333 17.7098 42.1454 18.8425 41.3779C19.5578 40.8146 20.3352 40.3458 21.1611 39.9797C23.4804 38.9652 26.0669 38.6681 28.6657 39.1176C31.2644 39.5672 33.7854 40.7479 35.98 42.5433C37.106 43.4628 38.0561 44.6296 38.7597 45.9567C39.4633 47.2838 39.9023 48.7372 40.044 50.2086L47.2993 52.9573L49.556 45.503L47.1912 40.1832C44.8511 39.9877 42.5395 39.0427 40.5415 37.4645C38.5435 35.8864 36.9467 33.7444 35.948 31.3027C34.4157 28.3483 33.9395 24.9707 34.6224 21.9001C35.3054 18.8295 37.0925 16.3127 39.5975 14.8939C42.3291 13.9849 45.3949 14.3445 48.1319 15.8949C50.8689 17.4452 53.0573 20.0618 54.2238 23.1788C55.7561 26.1332 56.2323 29.5109 55.5494 32.5815C54.8665 35.6521 53.0793 38.1689 50.5743 39.5877L52.6019 44.149L94.1286 63.7124L99.9181 76.7366L46.2515 56.4184ZM49.0062 36.06C50.6974 34.9954 51.8707 33.195 52.2763 31.0421C52.6819 28.8892 52.2878 26.5537 51.1778 24.5328C50.4213 22.3548 48.9516 20.4974 47.0816 19.356C45.2116 18.2146 43.089 17.8794 41.1656 18.4215C39.4744 19.4861 38.3011 21.2865 37.8955 23.4394C37.4899 25.5924 37.884 27.9278 38.994 29.9487C39.7505 32.1267 41.2202 33.9841 43.0902 35.1255C44.9602 36.2669 47.0828 36.6022 49.0062 36.06ZM50.6442 54.2207L93.4693 70.4355L91.7319 66.5268L52.5122 48.0503L50.6442 54.2207ZM34.0444 45.4104C32.0632 43.8448 29.764 42.9239 27.4446 42.767C25.1251 42.6102 22.8923 43.2246 21.0355 44.5307C20.3095 44.9739 19.7206 45.63 19.3257 46.4356C18.9308 47.2411 18.7433 48.1688 18.7813 49.1289C18.8193 50.089 19.0815 51.0492 19.5426 51.9164C20.0037 52.7837 20.6481 53.5288 21.4135 54.0796C23.3963 55.6416 25.6955 56.5598 28.0145 56.7157C30.3335 56.8717 32.566 56.2582 34.4238 54.9544C35.1498 54.5112 35.7388 53.8551 36.1337 53.0496C36.5286 52.244 36.7161 51.3164 36.6781 50.3562C36.6401 49.3961 36.3778 48.4359 35.9167 47.5687C35.4556 46.7014 34.8112 45.9564 34.0459 45.4055L34.0444 45.4104Z" fill="#5A796C"/>
</g>
<defs>
<clipPath id="clip0_116_24">
<rect width="80" height="92.6524" fill="white" transform="translate(110.738 84.6646) rotate(156.034)"/>
</clipPath>
</defs>
</svg>
