<svg width="82" height="104" viewBox="0 0 82 104" fill="none" xmlns="http://www.w3.org/2000/svg">
<g clip-path="url(#clip0_112_38)">
<path d="M42.4285 16.0788C39.5558 21.1719 38.1156 26.2398 38.1909 31.2433C38.1783 31.3039 38.1743 31.3861 38.1459 31.438C37.0248 35.3979 30.1739 47.5272 22.2474 61.582C18.5623 68.1205 14.7334 74.8839 11.1361 81.4873C9.43627 84.59 11.1399 88.7978 14.9033 90.8597L23.9165 95.7978C27.6167 97.8251 31.9456 97.0911 33.7364 94.1227C44.1273 76.9958 49.7061 64.5241 53.3893 56.263C56.1637 50.0358 58.0009 45.8944 60.2029 43.4889C63.2177 41.326 66.1515 38.0724 69.0204 33.7367C69.0346 33.7107 69.0489 33.6848 69.0931 33.6415C69.546 32.9275 70.013 32.1876 70.4872 31.4347L42.4356 16.0658L42.4285 16.0788ZM27.3289 81.1264C26.5685 81.6888 25.4831 81.7186 24.5027 81.1815C24.5027 81.1815 24.4869 81.1728 24.4711 81.1641C23.4978 80.614 22.9213 79.6399 23.0089 78.6921C23.9432 69.8195 31.894 50.917 42.3835 32.747C42.6909 32.2234 43.3193 31.977 44.0166 32.0552C44.7455 32.1507 45.3741 32.5795 45.6952 33.1943C46.3879 34.519 47.2033 35.9953 47.8849 37.0777C48.2345 37.6405 48.8686 38.0217 49.5255 38.0609C50.9485 38.1654 52.7051 38.1488 54.2451 38.1149C54.9147 38.0935 55.6002 38.4184 56.0485 38.951C56.4652 39.4663 56.5729 40.1329 56.3184 40.6348C47.9964 57.3254 33.665 76.4286 27.3289 81.1264ZM73.3126 31.1935C75.222 28.1213 77.6069 22.9803 79.1767 18.0511C77.0933 20.3528 74.8864 21.9793 73.1628 21.035C72.5145 20.6798 72.123 20.0433 71.9497 19.1213C71.7764 18.1993 71.8829 16.9918 72.2075 15.4987C70.5564 16.9739 68.7478 17.8734 67.3926 17.2322C65.9814 16.5434 65.6166 14.8076 66.3915 11.7046C64.6582 13.4049 62.6734 14.6635 61.0605 13.7799C61.0447 13.7712 61.0288 13.7625 61.0288 13.7625C59.446 12.8616 59.4906 10.6412 60.208 8.13108C58.1885 9.97839 56.1301 11.1461 54.5963 10.3058L54.5014 10.2538C53.2648 9.50881 52.9807 7.85095 53.6348 5.3062C51.6817 7.25742 49.787 8.46419 48.2848 7.64117C47.7543 7.33363 46.377 6.54529 47.939 1.78052C44.9285 5.54915 42.1522 10.0537 40.7385 13.3469L43.3951 14.8024L46.809 8.57111C47.0153 8.19464 47.5655 8.091 48.0241 8.34224L74.3838 22.7841C74.8423 23.0354 75.0511 23.5549 74.8449 23.9313L71.4309 30.1626L72.1267 30.5438L73.3126 31.1935Z" fill="#5A796C"/>
<path d="M72.7847 23.714L48.1012 10.1904L45.0713 15.7207L69.7548 29.2442L72.7847 23.714Z" fill="#5A796C"/>
<path d="M54.6313 39.8117C53.0296 39.8456 51.1797 39.8448 49.6792 39.7316C48.3337 39.6358 47.041 38.8432 46.3348 37.7305C45.62 36.5962 44.7943 35.0636 44.077 33.7086C33.6729 51.7227 25.7655 70.3959 24.8549 79.1127C24.8281 79.5368 25.1776 79.762 25.2725 79.814C25.4148 79.892 25.7365 80.0177 26.0424 79.797C32.2213 75.1987 46.6261 55.8489 54.6313 39.8117ZM34.763 63.3923C33.1817 62.5259 32.4683 60.751 33.1796 59.4528C33.8908 58.1547 35.7706 57.8006 37.3519 58.6669C38.9332 59.5332 39.6466 61.3081 38.9354 62.6063C38.217 63.9175 36.3443 64.2586 34.763 63.3923ZM38.2196 57.0831C36.6384 56.2168 35.925 54.4419 36.6362 53.1437C37.3474 51.8455 39.2273 51.4914 40.8086 52.3578C42.3898 53.2241 43.1032 54.999 42.392 56.2972C41.6808 57.5954 39.8009 57.9495 38.2196 57.0831ZM42.2524 49.7225C40.1809 48.5875 39.5835 45.8129 40.8993 43.4112C42.2222 40.9966 44.8822 40.0066 46.9537 41.1415C49.0252 42.2764 49.6226 45.0511 48.2996 47.4657C46.9997 49.876 44.3238 50.8574 42.2524 49.7225Z" fill="#5A796C"/>
<path d="M46.6235 46.5474C45.6846 48.261 43.9479 48.8792 42.9992 48.3594C42.0346 47.8309 41.6208 46.0345 42.5596 44.3209C43.4985 42.6073 45.2352 41.9891 46.1998 42.5176C47.1485 43.0374 47.5623 44.8338 46.6235 46.5474ZM40.7 55.3702C40.4013 55.9155 39.6448 56.058 38.9806 55.6941C38.3165 55.3303 38.0136 54.6073 38.3123 54.0621C38.611 53.5168 39.3834 53.383 40.0475 53.7468C40.7116 54.1107 40.9987 54.825 40.7 55.3702ZM37.2434 61.6794C36.9447 62.2246 36.1881 62.3671 35.524 62.0033C34.8599 61.6394 34.5569 60.9164 34.8557 60.3712C35.1544 59.826 35.9267 59.6921 36.5909 60.056C37.255 60.4199 37.535 61.1471 37.2434 61.6794Z" fill="#5A796C"/>
</g>
<defs>
<clipPath id="clip0_112_38">
<rect width="40.1578" height="95.4691" fill="white" transform="translate(46.7089) rotate(28.7174)"/>
</clipPath>
</defs>
</svg>
