<svg width="499" height="270" viewBox="0 0 499 270" fill="none" xmlns="http://www.w3.org/2000/svg">
<path d="M55.8443 24.5948V57.268C55.8443 61.9851 51.6433 65.8431 46.5071 65.8431C41.3654 65.8431 37.1644 61.9851 37.1644 57.268V24.5948H55.8443Z" stroke="#5A796C" stroke-width="2.36442" stroke-miterlimit="10" stroke-linecap="round" stroke-linejoin="round"/>
<path d="M34.0849 19.7572H58.9294C59.8537 19.7572 60.6141 20.4556 60.6141 21.3095V23.0426C60.6141 23.8965 59.8537 24.5949 58.9294 24.5949H34.0849C33.155 24.5949 32.3945 23.8965 32.3945 23.0426V21.3095C32.3945 20.4556 33.1548 19.7572 34.0849 19.7572Z" stroke="#5A796C" stroke-width="2.36442" stroke-miterlimit="10" stroke-linecap="round" stroke-linejoin="round"/>
<path d="M46.7039 85.3749V66.7576" stroke="#5A796C" stroke-width="2.36442" stroke-miterlimit="10" stroke-linecap="round" stroke-linejoin="round"/>
<path d="M51.1784 30.8894H55.8443" stroke="#5A796C" stroke-width="2.36442" stroke-miterlimit="10" stroke-linecap="round" stroke-linejoin="round"/>
<path d="M47.3987 36.6112H55.8443" stroke="#5A796C" stroke-width="2.36442" stroke-miterlimit="10" stroke-linecap="round" stroke-linejoin="round"/>
<path d="M51.1784 42.328H55.8443" stroke="#5A796C" stroke-width="2.36442" stroke-miterlimit="10" stroke-linecap="round" stroke-linejoin="round"/>
<path d="M47.3987 48.0499H55.8443" stroke="#5A796C" stroke-width="2.36442" stroke-miterlimit="10" stroke-linecap="round" stroke-linejoin="round"/>
<path d="M51.1784 53.7668H55.8443" stroke="#5A796C" stroke-width="2.36442" stroke-miterlimit="10" stroke-linecap="round" stroke-linejoin="round"/>
<path d="M49.5811 4.93262V19.7571H45.2762V4.93262C45.949 5.02314 46.6711 5.06832 47.4314 5.06832C48.1863 5.06832 48.9083 5.02314 49.5811 4.93262ZM49.5811 24.5948V24.7254H45.2762V24.5948H49.5811Z" stroke="#5A796C" stroke-width="2.36442" stroke-miterlimit="10" stroke-linecap="round" stroke-linejoin="round"/>
<path d="M47.4316 5.06837C50.9158 5.06837 53.7658 4.02353 53.7658 2.74244C53.7658 1.46134 50.9158 0.416504 47.4316 0.416504C43.9417 0.416504 41.0974 1.46134 41.0974 2.74244C41.0974 4.02353 43.9417 5.06837 47.4316 5.06837Z" stroke="#5A796C" stroke-width="2.36442" stroke-miterlimit="10" stroke-linecap="round" stroke-linejoin="round"/>
<path d="M117.882 30.3555H180.589C188.46 30.3555 194.898 36.2682 194.898 43.497C194.898 50.721 188.46 56.6335 180.589 56.6335H117.882C110.01 56.6335 103.572 50.7208 103.572 43.497C103.572 36.2682 110.01 30.3555 117.882 30.3555Z" stroke="#5A796C" stroke-width="2.36107" stroke-miterlimit="10" stroke-linecap="round" stroke-linejoin="round"/>
<path d="M139.072 30.3555H159.399C163.184 30.3555 166.285 33.1987 166.285 36.6801V50.3089C166.285 53.7904 163.184 56.6335 159.399 56.6335H139.072C135.287 56.6335 132.186 53.7903 132.186 50.3089V36.6801C132.186 33.1987 135.287 30.3555 139.072 30.3555Z" stroke="#5A796C" stroke-width="2.36107" stroke-miterlimit="10" stroke-linecap="round" stroke-linejoin="round"/>
<path d="M175.103 39.0106V38.9708" stroke="#5A796C" stroke-width="2.36107" stroke-miterlimit="10" stroke-linecap="round" stroke-linejoin="round"/>
<path d="M175.951 49.9725V49.9271" stroke="#5A796C" stroke-width="2.36107" stroke-miterlimit="10" stroke-linecap="round" stroke-linejoin="round"/>
<path d="M186.108 42.8987V42.8591" stroke="#5A796C" stroke-width="2.36107" stroke-miterlimit="10" stroke-linecap="round" stroke-linejoin="round"/>
<path d="M112.975 46.3949V46.3505" stroke="#5A796C" stroke-width="2.36107" stroke-miterlimit="10" stroke-linecap="round" stroke-linejoin="round"/>
<path d="M121.754 39.5084V39.463" stroke="#5A796C" stroke-width="2.36107" stroke-miterlimit="10" stroke-linecap="round" stroke-linejoin="round"/>
<path d="M122.985 50.113V50.0679" stroke="#5A796C" stroke-width="2.36107" stroke-miterlimit="10" stroke-linecap="round" stroke-linejoin="round"/>
<path d="M248.117 12.6539H251.175C257.487 12.6539 262.656 17.3962 262.656 23.1983V42.8755C262.656 48.6726 257.487 53.4199 251.175 53.4199H248.117C241.799 53.4199 236.636 48.6726 236.636 42.8755V23.1983C236.636 17.3962 241.799 12.6539 248.117 12.6539Z" stroke="#5A796C" stroke-width="2.36107" stroke-miterlimit="10" stroke-linecap="round" stroke-linejoin="round"/>
<path d="M249.835 57.7754C251.312 57.7754 252.515 58.8807 252.515 60.237V67.6165C252.515 68.9679 251.312 70.073 249.835 70.073C248.363 70.073 247.16 68.9679 247.16 67.6165V60.237C247.16 58.8807 248.363 57.7754 249.835 57.7754Z" stroke="#5A796C" stroke-width="2.36107" stroke-miterlimit="10" stroke-linecap="round" stroke-linejoin="round"/>
<path d="M249.03 85.5508C244.764 78.3973 251.809 77.8797 249.381 70.033" stroke="#5A796C" stroke-width="2.36107" stroke-miterlimit="10" stroke-linecap="round" stroke-linejoin="round"/>
<path d="M239.611 26.1824H257.022H262.656" stroke="#5A796C" stroke-width="2.36107" stroke-miterlimit="10" stroke-linecap="round" stroke-linejoin="round"/>
<path d="M257.87 32.1553H262.656" stroke="#5A796C" stroke-width="2.36107" stroke-miterlimit="10" stroke-linecap="round" stroke-linejoin="round"/>
<path d="M254.047 38.5453H260.55H262.656" stroke="#5A796C" stroke-width="2.36107" stroke-miterlimit="10" stroke-linecap="round" stroke-linejoin="round"/>
<path d="M249.911 10.971C252.143 10.971 253.964 8.56474 253.964 5.61584C253.964 2.66201 252.143 0.255737 249.911 0.255737C247.679 0.255737 245.858 2.66201 245.858 5.61584C245.858 8.56474 247.679 10.971 249.911 10.971Z" stroke="#5A796C" stroke-width="2.36107" stroke-miterlimit="10" stroke-linecap="round" stroke-linejoin="round"/>
<path d="M362.395 22.6724C376.984 26.3914 387.696 38.6773 387.696 53.268C387.696 70.804 372.219 85.0235 353.124 85.0235C334.024 85.0235 318.547 70.804 318.547 53.268C318.547 38.5131 329.502 26.1109 344.35 22.5454V8.90332H362.395V22.6724Z" stroke="#5A796C" stroke-width="2.36442" stroke-miterlimit="10" stroke-linecap="round" stroke-linejoin="round"/>
<path d="M342.85 0.161499H363.894C365.827 0.161499 367.402 1.60783 367.402 3.38252V5.68192C367.402 7.4566 365.827 8.90293 363.894 8.90293H342.85C340.918 8.90293 339.343 7.45643 339.343 5.68192V3.38252C339.343 1.60783 340.918 0.161499 342.85 0.161499Z" stroke="#5A796C" stroke-width="2.36442" stroke-miterlimit="10" stroke-linecap="round" stroke-linejoin="round"/>
<path d="M318.755 53.2681H326.94" stroke="#5A796C" stroke-width="2.36442" stroke-miterlimit="10" stroke-linecap="round" stroke-linejoin="round"/>
<path d="M333.672 53.2681H340.935" stroke="#5A796C" stroke-width="2.36442" stroke-miterlimit="10" stroke-linecap="round" stroke-linejoin="round"/>
<path d="M380.641 53.2681H387.696" stroke="#5A796C" stroke-width="2.36442" stroke-miterlimit="10" stroke-linecap="round" stroke-linejoin="round"/>
<path d="M349.957 53.2681H357.214" stroke="#5A796C" stroke-width="2.36442" stroke-miterlimit="10" stroke-linecap="round" stroke-linejoin="round"/>
<path d="M366.236 53.2681H373.493" stroke="#5A796C" stroke-width="2.36442" stroke-miterlimit="10" stroke-linecap="round" stroke-linejoin="round"/>
<path d="M454.81 11.8458C472.343 -16.9802 512.153 15.147 487.645 40.1027C471.008 57.8091 482.862 71.1847 471.137 84.9483C468.343 71.3916 466.202 60.8412 454.81 60.3342C443.417 60.8414 441.271 71.3917 438.476 84.9483C426.757 71.1847 438.606 57.8091 421.974 40.1027C397.466 15.1468 437.271 -16.9802 454.81 11.8458Z" stroke="#5A796C" stroke-width="2.36442" stroke-miterlimit="10" stroke-linecap="round" stroke-linejoin="round"/>
<path d="M449.39 21.3923C450.06 17.2321 454.81 11.8458 454.81 11.8458C454.81 11.8458 459.542 16.4562 460.821 21.5528" stroke="#5A796C" stroke-width="2.36442" stroke-miterlimit="10" stroke-linecap="round" stroke-linejoin="round"/>
<path d="M422.566 23.6018C422.566 23.6018 420.16 10.8161 432.369 10.6556" stroke="#5A796C" stroke-width="2.36442" stroke-miterlimit="10" stroke-linecap="round" stroke-linejoin="round"/>
<path d="M447.363 111.904L479.843 133.732C484.529 136.885 485.559 142.988 482.126 147.297C478.692 151.6 472.048 152.547 467.361 149.394L434.882 127.566L447.363 111.904Z" stroke="#5A796C" stroke-width="2.36442" stroke-miterlimit="10" stroke-linecap="round" stroke-linejoin="round"/>
<path d="M428.015 126.918L429.45 125.119L413.683 114.524C402.05 106.701 415.425 88.0897 428.009 96.5457L443.776 107.14L444.613 106.089C445.234 105.31 446.436 105.138 447.284 105.707L449.009 106.868C449.858 107.438 450.04 108.542 449.419 109.321L432.821 130.15C432.2 130.929 430.999 131.101 430.15 130.531L428.431 129.371C427.582 128.801 427.394 127.697 428.015 126.918Z" stroke="#5A796C" stroke-width="2.36442" stroke-miterlimit="10" stroke-linecap="round" stroke-linejoin="round"/>
<path d="M488.412 151.266L483.168 147.736" stroke="#5A796C" stroke-width="2.36442" stroke-miterlimit="10" stroke-linecap="round" stroke-linejoin="round"/>
<path d="M450.501 120.026L453.621 116.109" stroke="#5A796C" stroke-width="2.36442" stroke-miterlimit="10" stroke-linecap="round" stroke-linejoin="round"/>
<path d="M453.667 127.012L459.31 119.931" stroke="#5A796C" stroke-width="2.36442" stroke-miterlimit="10" stroke-linecap="round" stroke-linejoin="round"/>
<path d="M461.872 127.671L464.993 123.754" stroke="#5A796C" stroke-width="2.36442" stroke-miterlimit="10" stroke-linecap="round" stroke-linejoin="round"/>
<path d="M465.032 134.657L470.681 127.572" stroke="#5A796C" stroke-width="2.36442" stroke-miterlimit="10" stroke-linecap="round" stroke-linejoin="round"/>
<path d="M473.243 135.311L476.364 131.394" stroke="#5A796C" stroke-width="2.36442" stroke-miterlimit="10" stroke-linecap="round" stroke-linejoin="round"/>
<path d="M492.313 178.004C504.361 178.255 494.59 160.653 492.7 156.908C490.474 161.003 480.429 177.758 492.313 178.004Z" stroke="#5A796C" stroke-width="2.36442" stroke-miterlimit="10" stroke-linecap="round" stroke-linejoin="round"/>
<path d="M346.297 128.538C346.392 129.138 346.442 129.759 346.442 130.39C346.442 135.679 343.091 139.967 338.963 139.967C334.836 139.967 331.49 135.679 331.49 130.39C331.49 129.626 331.557 128.877 331.691 128.164C333.936 129.405 336.561 130.118 339.36 130.118C341.856 130.118 344.219 129.549 346.297 128.538Z" stroke="#5A796C" stroke-width="2.36107" stroke-miterlimit="10" stroke-linecap="round" stroke-linejoin="round"/>
<path d="M375.554 144.302C379.347 144.302 382.441 141.46 382.441 137.977C382.441 134.494 379.347 131.652 375.554 131.652C371.762 131.652 368.673 134.494 368.673 137.977C368.673 141.46 371.762 144.302 375.554 144.302Z" stroke="#5A796C" stroke-width="2.36107" stroke-miterlimit="10" stroke-linecap="round" stroke-linejoin="round"/>
<path d="M354.307 101.397V116.386C354.307 123.942 347.581 130.118 339.359 130.118C331.132 130.118 324.407 123.942 324.407 116.386V101.397" stroke="#5A796C" stroke-width="2.36107" stroke-miterlimit="10" stroke-linecap="round" stroke-linejoin="round"/>
<path d="M324.407 101.397C326.792 101.397 328.736 99.6113 328.736 97.4209C328.736 95.2305 326.792 93.4454 324.407 93.4454C322.022 93.4454 320.078 95.2305 320.078 97.4209C320.078 99.6113 322.022 101.397 324.407 101.397Z" stroke="#5A796C" stroke-width="2.36107" stroke-miterlimit="10" stroke-linecap="round" stroke-linejoin="round"/>
<path d="M354.307 101.663C356.692 101.663 358.635 99.8782 358.635 97.6877C358.635 95.4973 356.692 93.7123 354.307 93.7123C351.927 93.7123 349.983 95.4973 349.983 97.6877C349.983 99.8782 351.927 101.663 354.307 101.663Z" stroke="#5A796C" stroke-width="2.36107" stroke-miterlimit="10" stroke-linecap="round" stroke-linejoin="round"/>
<path d="M375.554 144.938V161.379C375.554 170.72 367.232 178.363 357.066 178.363C346.895 178.363 338.572 170.72 338.572 161.379V139.875" stroke="#5A796C" stroke-width="2.36107" stroke-miterlimit="10" stroke-linecap="round" stroke-linejoin="round"/>
<path d="M375.554 137.976V137.936" stroke="#5A796C" stroke-width="2.36107" stroke-miterlimit="10" stroke-linecap="round" stroke-linejoin="round"/>
<path d="M227.33 98.4303H238.562C238.562 101.356 241.169 103.751 244.356 103.751H258.338C261.529 103.751 264.137 101.356 264.137 98.4303H275.363C280.99 98.4303 285.592 102.656 285.592 107.824V169.504C285.592 174.672 280.99 178.898 275.363 178.898H227.33C221.703 178.898 217.102 174.672 217.102 169.504V107.824C217.102 102.656 221.703 98.4303 227.33 98.4303Z" stroke="#5A796C" stroke-width="2.36107" stroke-miterlimit="10" stroke-linecap="round" stroke-linejoin="round"/>
<path d="M244.356 93.1094H258.338C261.529 93.1094 264.137 95.504 264.137 98.4303C264.137 101.356 261.529 103.751 258.338 103.751H244.356C241.169 103.751 238.562 101.356 238.562 98.4303C238.562 95.504 241.169 93.1094 244.356 93.1094Z" stroke="#5A796C" stroke-width="2.36107" stroke-miterlimit="10" stroke-linecap="round" stroke-linejoin="round"/>
<path d="M246.774 114.876H255.92V120.481H262.023V128.881H255.92V134.485H246.774V128.881H240.671V120.481H246.774V114.876Z" stroke="#5A796C" stroke-width="2.36107" stroke-miterlimit="10" stroke-linecap="round" stroke-linejoin="round"/>
<path d="M229.107 146.332H264.246" stroke="#5A796C" stroke-width="2.36107" stroke-miterlimit="10" stroke-linecap="round" stroke-linejoin="round"/>
<path d="M229.107 156.568H255.794" stroke="#5A796C" stroke-width="2.36107" stroke-miterlimit="10" stroke-linecap="round" stroke-linejoin="round"/>
<path d="M229.107 166.809H255.794" stroke="#5A796C" stroke-width="2.36107" stroke-miterlimit="10" stroke-linecap="round" stroke-linejoin="round"/>
<path d="M118.725 167.132H179.723C183.095 167.132 185.854 169.667 185.854 172.763C185.854 175.859 183.095 178.394 179.723 178.394H118.725C115.354 178.394 112.594 175.859 112.594 172.763C112.594 169.667 115.354 167.132 118.725 167.132Z" stroke="#5A796C" stroke-width="2.36107" stroke-miterlimit="10" stroke-linecap="round" stroke-linejoin="round"/>
<path d="M173.446 136.669C177.221 136.669 180.307 133.841 180.307 130.369C180.307 126.896 177.221 124.063 173.446 124.063C169.665 124.063 166.58 126.897 166.58 130.369C166.58 133.841 169.665 136.669 173.446 136.669Z" stroke="#5A796C" stroke-width="2.36107" stroke-miterlimit="10" stroke-linecap="round" stroke-linejoin="round"/>
<path d="M164.021 103.283L155.708 96.1573L133.981 117.537L142.295 124.663L164.021 103.283Z" stroke="#5A796C" stroke-width="2.36107" stroke-miterlimit="10" stroke-linecap="round" stroke-linejoin="round"/>
<path d="M128.76 113.064L147.048 128.736L134.858 140.734L134.465 140.399C136.333 138.56 133.932 133.707 129.097 129.565C124.267 125.423 118.831 123.558 116.964 125.397L116.571 125.063L128.76 113.064Z" stroke="#5A796C" stroke-width="2.36107" stroke-miterlimit="10" stroke-linecap="round" stroke-linejoin="round"/>
<path d="M129.097 129.565C133.932 133.707 136.333 138.56 134.465 140.399C132.597 142.239 127.162 140.369 122.332 136.226C117.496 132.084 115.096 127.236 116.964 125.397C118.831 123.558 124.267 125.423 129.097 129.565Z" stroke="#5A796C" stroke-width="2.36107" stroke-miterlimit="10" stroke-linecap="round" stroke-linejoin="round"/>
<path d="M178.848 134.253V167.132H168.039V134.253C169.295 135.727 171.253 136.67 173.446 136.67C175.64 136.67 177.592 135.727 178.848 134.253Z" stroke="#5A796C" stroke-width="2.36107" stroke-miterlimit="10" stroke-linecap="round" stroke-linejoin="round"/>
<path d="M158.575 108.649L175.875 124.47C175.118 124.207 174.299 124.063 173.446 124.063C169.794 124.063 166.81 126.685 166.591 129.988L151.199 115.908L158.575 108.649Z" stroke="#5A796C" stroke-width="2.36107" stroke-miterlimit="10" stroke-linecap="round" stroke-linejoin="round"/>
<path d="M128.85 155.747V166.71" stroke="#5A796C" stroke-width="2.36107" stroke-miterlimit="10" stroke-linecap="round" stroke-linejoin="round"/>
<path d="M122.882 155.381H134.819" stroke="#5A796C" stroke-width="2.36107" stroke-miterlimit="10" stroke-linecap="round" stroke-linejoin="round"/>
<path d="M161.93 93.6367L166.277 97.3925" stroke="#5A796C" stroke-width="2.36107" stroke-miterlimit="10" stroke-linecap="round" stroke-linejoin="round"/>
<path d="M46.3714 93.5764C52.7732 93.5764 58.0095 98.3853 58.0095 104.259V147.007C58.0095 151.821 54.4899 155.923 49.7015 157.247V176.013C49.7015 177.69 48.203 179.066 46.3714 179.066C44.5456 179.066 43.0471 177.69 43.0471 176.013V157.247C38.2587 155.923 34.7393 151.821 34.7393 147.007V104.259C34.7393 98.3854 39.9756 93.5764 46.3714 93.5764Z" stroke="#5A796C" stroke-width="2.36442" stroke-miterlimit="10" stroke-linecap="round" stroke-linejoin="round"/>
<path d="M46.3714 106.379V153.535" stroke="#5A796C" stroke-width="2.36442" stroke-miterlimit="10" stroke-linecap="round" stroke-linejoin="round"/>
<path d="M42.2836 119.435H50.4652" stroke="#5A796C" stroke-width="2.36442" stroke-miterlimit="10" stroke-linecap="round" stroke-linejoin="round"/>
<path d="M40.7161 127.455H52.0326" stroke="#5A796C" stroke-width="2.36442" stroke-miterlimit="10" stroke-linecap="round" stroke-linejoin="round"/>
<path d="M42.2836 135.749H50.4652" stroke="#5A796C" stroke-width="2.36442" stroke-miterlimit="10" stroke-linecap="round" stroke-linejoin="round"/>
<path d="M46.3831 106.379C48.0883 106.379 49.4777 105.103 49.4777 103.537C49.4777 101.971 48.0883 100.695 46.3831 100.695C44.6778 100.695 43.2827 101.971 43.2827 103.537C43.2827 105.103 44.6778 106.379 46.3831 106.379Z" stroke="#5A796C" stroke-width="2.36442" stroke-miterlimit="10" stroke-linecap="round" stroke-linejoin="round"/>
<path d="M67.3645 226.629C68.0503 229.128 68.4193 231.796 68.4193 234.57C68.4193 248.709 58.8165 260.165 46.9711 260.165C35.12 260.165 25.5171 248.709 25.5171 234.57C25.5171 231.796 25.886 229.128 26.572 226.629H67.3645Z" stroke="#5A796C" stroke-width="2.36442" stroke-miterlimit="10" stroke-linecap="round" stroke-linejoin="round"/>
<path d="M26.5719 226.629H67.3644L79.567 204.946C57.8824 186.456 40.1116 183.93 15.7181 204.327L26.5719 226.629Z" stroke="#5A796C" stroke-width="2.36442" stroke-miterlimit="10" stroke-linecap="round" stroke-linejoin="round"/>
<path d="M30.6527 251.187H1.19838C-0.917038 236.401 5.7173 225.189 19.8163 217.026" stroke="#5A796C" stroke-width="2.36442" stroke-miterlimit="10" stroke-linecap="round" stroke-linejoin="round"/>
<path d="M45.7893 201.526V214.247" stroke="#5A796C" stroke-width="2.36442" stroke-miterlimit="10" stroke-linecap="round" stroke-linejoin="round"/>
<path d="M38.861 207.89H52.7121" stroke="#5A796C" stroke-width="2.36442" stroke-miterlimit="10" stroke-linecap="round" stroke-linejoin="round"/>
<path d="M63.8539 251.192L94.1961 251.187C96.3175 236.401 89.6771 225.189 75.5781 217.026" stroke="#5A796C" stroke-width="2.36442" stroke-miterlimit="10" stroke-linecap="round" stroke-linejoin="round"/>
<path d="M25.5344 235.623C35.2354 235.613 41.8525 231.997 46.9711 226.629C53.1041 232.092 60.1766 235.332 68.3961 235.824" stroke="#5A796C" stroke-width="2.36442" stroke-miterlimit="10" stroke-linecap="round" stroke-linejoin="round"/>
<path d="M13.2281 251.187C10.5304 239.032 15.1417 228.943 23.275 219.854" stroke="#5A796C" stroke-width="2.36442" stroke-miterlimit="10" stroke-linecap="round" stroke-linejoin="round"/>
<path d="M81.4747 251.187C84.1722 239.032 79.5609 228.943 71.428 219.854" stroke="#5A796C" stroke-width="2.36442" stroke-miterlimit="10" stroke-linecap="round" stroke-linejoin="round"/>
<path d="M132.03 269.653C146.072 269.653 157.525 259.135 157.525 246.239C157.525 233.342 146.072 222.824 132.03 222.824C117.988 222.824 106.535 233.342 106.535 246.239C106.535 259.135 117.988 269.653 132.03 269.653Z" stroke="#5A796C" stroke-width="2.36107" stroke-miterlimit="10" stroke-linecap="round" stroke-linejoin="round"/>
<path d="M176.585 245.782H192.575C194.239 245.782 195.595 247.033 195.595 248.555V250.514C195.595 252.036 194.239 253.287 192.575 253.287C180.436 253.287 168.397 253.512 156.269 253.512C157.084 251.221 157.525 248.776 157.525 246.239C157.525 233.306 146.112 222.824 132.03 222.824C129.262 222.824 126.6 223.229 124.11 223.977V195.862C124.11 192.813 126.823 190.316 130.144 190.316H134.408C137.729 190.316 140.447 192.813 140.447 195.862V216.232H168.169C172.795 216.232 176.585 219.708 176.585 223.962V245.782Z" stroke="#5A796C" stroke-width="2.36107" stroke-miterlimit="10" stroke-linecap="round" stroke-linejoin="round"/>
<path d="M185.487 267.675C187.703 267.675 189.506 266.014 189.506 263.979C189.506 261.944 187.703 260.288 185.487 260.288C183.272 260.288 181.463 261.944 181.463 263.979C181.463 266.014 183.271 267.675 185.487 267.675Z" stroke="#5A796C" stroke-width="2.36107" stroke-miterlimit="10" stroke-linecap="round" stroke-linejoin="round"/>
<path d="M149.237 228.96H171.116H176.585" stroke="#5A796C" stroke-width="2.36107" stroke-miterlimit="10" stroke-linecap="round" stroke-linejoin="round"/>
<path d="M132.521 222.824V269.653" stroke="#5A796C" stroke-width="2.36107" stroke-miterlimit="10" stroke-linecap="round" stroke-linejoin="round"/>
<path d="M107.026 246.239H157.525" stroke="#5A796C" stroke-width="2.36107" stroke-miterlimit="10" stroke-linecap="round" stroke-linejoin="round"/>
<path d="M150.398 229.544L114.65 262.933" stroke="#5A796C" stroke-width="2.36107" stroke-miterlimit="10" stroke-linecap="round" stroke-linejoin="round"/>
<path d="M114.65 229.544L149.578 262.164" stroke="#5A796C" stroke-width="2.36107" stroke-miterlimit="10" stroke-linecap="round" stroke-linejoin="round"/>
<path d="M165.646 245.782H187.525H192.994" stroke="#5A796C" stroke-width="2.36107" stroke-miterlimit="10" stroke-linecap="round" stroke-linejoin="round"/>
<path d="M107.004 198.379H124.11V205.601H107.004C104.844 205.601 103.075 203.976 103.075 201.993C103.075 200.004 104.844 198.379 107.004 198.379Z" stroke="#5A796C" stroke-width="2.36107" stroke-miterlimit="10" stroke-linecap="round" stroke-linejoin="round"/>
</svg>
